
<svg width="232" height="229" viewBox="0 0 232 229" fill="none" xmlns="http://www.w3.org/2000/svg">
<path d="M207.627 69.4188C204.971 65.5618 201.398 62.4051 197.222 60.2241C193.045 58.0431 188.392 56.9041 183.667 56.9065H180.444C180.444 56.9065 145.947 20.8263 147.256 18.161C143.664 20.045 140.658 22.8561 138.559 26.2942C136.459 29.7324 135.344 33.6687 135.333 37.6832C135.333 37.6832 99.8309 15.8583 101.519 12.5759C94.7978 16.9778 90.2222 25.101 90.2222 34.5027V37.8232C90.2222 37.8232 55.1193 27.4864 57.0785 24.4966C53.4748 26.3768 50.4572 29.1892 48.3491 32.6327C46.2409 36.0762 45.1216 40.021 45.1111 44.0443V56.0414L6.44446 95.9383V112.763L117.031 204.612C117.031 204.618 201.634 63.6238 207.627 69.4188Z" fill="#EF9645"/>
<path d="M26.5769 120.518C36.076 120.518 44.2218 115.232 48.4365 107.522C52.8058 115.232 61.0547 120.518 70.644 120.518H71.1338C78.5642 120.518 85.1118 117.273 89.7518 112.261C91.1338 110.757 92.3321 109.098 93.322 107.318C94.158 105.595 94.8939 103.826 95.526 102.019C95.8611 100.919 96.2091 99.8313 96.3896 98.6735C97.2982 99.7358 98.2971 100.703 99.354 101.6C99.7987 101.975 102.254 103.756 103.066 104.227C106.862 106.46 111.257 107.789 116.006 107.789H136.41C133.072 109.488 129.984 111.628 127.233 114.15C116.09 124.124 110.612 140.135 110.612 162.895C110.612 163.739 110.952 164.548 111.556 165.144C112.16 165.741 112.98 166.076 113.835 166.076C114.689 166.076 115.509 165.741 116.113 165.144C116.717 164.548 117.057 163.739 117.057 162.895C117.057 137.693 123.566 122.012 137.937 114.15C145.509 110.009 155.221 107.999 167.394 107.999C167.775 107.999 170.784 107.789 170.784 107.789C171.639 107.789 172.458 107.454 173.063 106.857C173.667 106.261 174.006 105.452 174.006 104.608C174.006 103.765 173.667 102.956 173.063 102.359C172.458 101.763 171.639 101.428 170.784 101.428H116C110.872 101.428 105.955 99.4173 102.329 95.8385C98.7036 92.2597 96.6667 87.4058 96.6667 82.3446C96.6667 77.2833 98.7036 72.4294 102.329 68.8506C105.955 65.2718 110.872 63.2612 116 63.2612H186.889C193.159 63.2612 201.634 63.6175 207.627 69.4124C209.722 71.4353 211.52 74.0942 212.802 77.6628L223.493 112.471C224.499 115.728 228.198 130.644 227.528 133.755C227.528 180.446 171.461 228.994 105.057 228.994C40.7676 229 6.44446 177.367 6.44446 114.226V112.77C6.5089 112.833 6.57979 112.872 6.64424 112.935C12.3218 118.546 18.2378 120.518 24.9787 120.518H26.5769Z" fill="#FFDC5D"/>
<path d="M24.9013 37.8231H26.6478C31.5435 37.8231 36.2387 39.7423 39.7011 43.1587C43.1634 46.5751 45.1094 51.209 45.1111 56.0414V95.9382C45.1111 100.77 43.1666 105.404 39.7052 108.82C36.2439 112.237 31.5493 114.156 26.6542 114.156H24.9013C20.0063 114.156 15.3117 112.237 11.8504 108.82C8.38902 105.404 6.44446 100.77 6.44446 95.9382V56.0414C6.44446 51.2096 8.38902 46.5757 11.8504 43.1591C15.3117 39.7425 20.0063 37.8231 24.9013 37.8231ZM90.2222 95.0731C90.2163 97.7629 89.6305 100.421 88.5039 102.87C87.3772 105.319 85.7354 107.503 83.6876 109.277C80.1768 112.406 75.6187 114.144 70.8889 114.156C65.7614 114.156 60.8439 112.146 57.2182 108.567C53.5925 104.988 51.5556 100.134 51.5556 95.0731V37.8231C51.5556 32.6325 53.6693 27.938 57.0785 24.4966C58.8731 22.6738 61.0201 21.225 63.3924 20.2361C65.7646 19.2473 68.3138 18.7384 70.8889 18.7398C76.0164 18.7398 80.9339 20.7504 84.5596 24.3292C88.1853 27.908 90.2222 32.7619 90.2222 37.8231V95.0731ZM116 56.9065C112.328 56.9162 108.702 57.7051 105.366 59.2196C102.03 60.7342 99.0634 62.9391 96.6667 65.6848V25.1009C96.6667 20.2792 98.5356 15.9282 101.519 12.5695C103.317 10.518 105.541 8.87144 108.039 7.7411C110.537 6.61076 113.252 6.02301 116 6.01758C121.128 6.01758 126.045 8.02814 129.671 11.607C133.296 15.1858 135.333 20.0397 135.333 25.1009V56.9065H116ZM141.778 31.4175C141.778 26.2523 143.879 21.5896 147.256 18.1546C149.047 16.3254 151.192 14.8707 153.565 13.8773C155.938 12.8839 158.489 12.3721 161.066 12.3723H161.156C166.272 12.374 171.178 14.3813 174.795 17.9528C178.413 21.5243 180.444 26.3675 180.444 31.4175V56.9065H141.778V31.4175Z" fill="#FFDC5D"/>
</svg>
