<svg width="314" height="229" viewBox="0 0 314 229" fill="none" xmlns="http://www.w3.org/2000/svg">
<path d="M252.22 51.9972C239.318 51.9972 232.63 58.1445 232.63 58.1445V44.3901C232.63 36.962 222.559 30.2995 212.084 30.2995C192.424 30.2995 189.12 38.5793 189.12 38.5793C189.12 38.5793 188.959 32.0885 187.539 26.4995C186.129 20.9105 176.128 14.0906 165.663 14.0906C146.094 14.0906 138.671 25.104 139.94 37.1194C139.94 37.1194 133.404 29.5195 119.243 29.5195C108.788 29.5195 94.1442 36.5612 95.8766 50.2583L99.5024 104.324C99.5024 104.324 89.0379 93.1099 80.205 89.453C71.3721 85.7962 58.1479 85.9536 50.9366 91.464C42.4562 97.9404 40.9152 108.088 47.0086 114.278C65.2586 132.841 91.163 157.087 96.0981 168.394C108.688 197.248 145.51 214.559 179.824 214.559C221.219 214.559 264.658 192.389 268.103 158.217L275.264 71.4479C276.049 63.9625 267.871 51.9972 252.21 51.9972H252.22Z" fill="#FFC83D"/>
<path d="M149.73 33.4409C149.629 29.7697 149.508 25.3758 150.818 21.4685C151.613 19.1069 152.812 17.3321 154.423 16.1728C155.135 15.6609 155.976 15.2483 156.901 14.9563C143.868 17.7758 138.893 27.1004 139.94 37.1263L139.749 36.9188L142.851 91.6069C142.877 92.0767 143.034 92.5383 143.311 92.9653C143.589 93.3922 143.982 93.7761 144.468 94.0951C144.955 94.414 145.525 94.6618 146.146 94.8243C146.767 94.9867 147.427 95.0607 148.088 95.0419C148.75 95.0231 149.399 94.9119 150 94.7147C150.601 94.5175 151.141 94.2382 151.59 93.8926C152.039 93.5471 152.388 93.1421 152.616 92.7008C152.845 92.2595 152.949 91.7905 152.923 91.3206L149.77 35.9312C149.77 35.1512 149.75 34.3139 149.73 33.4409V33.4409ZM161.735 14.3122C161.433 14.3122 161.151 14.3122 160.879 14.3265C161.164 14.2973 161.45 14.2711 161.735 14.2478V14.3194V14.3122ZM189.11 38.4288C188.808 39.7527 188.647 41.0909 188.647 42.4076L185.817 87.6137C185.787 88.0831 185.888 88.5521 186.113 88.9939C186.339 89.4356 186.684 89.8415 187.13 90.1884C188.031 90.889 189.287 91.3065 190.621 91.3492C191.955 91.3919 193.259 91.0563 194.245 90.4161C195.231 89.776 195.818 88.8837 195.879 87.9357L198.719 42.5651V42.4935C198.719 39.173 200.028 35.8668 202.345 33.491C203.684 32.1313 205.306 31.0936 207.25 30.4853C191.86 31.7019 189.12 38.5719 189.12 38.5719V38.4288H189.11ZM233.154 57.7149C231.789 61.3036 231.009 64.9917 230.827 68.7069V68.7283L229.095 98.1405C229.065 99.0782 229.553 99.9869 230.456 100.671C231.359 101.355 232.604 101.76 233.923 101.799C235.242 101.837 236.529 101.506 237.508 100.877C238.487 100.247 239.079 99.3702 239.157 98.4339L240.889 69.0432C241.413 61.3073 243.709 56.9778 245.985 54.6878C248.161 52.498 250.336 52.1115 251.595 52.1115V51.997C248.141 52.0304 244.73 52.5533 241.563 53.5351C238.397 54.517 235.538 55.938 233.154 57.7149V57.7149ZM105.183 118.529C104.263 118.541 103.357 118.374 102.561 118.046C101.766 117.718 101.112 117.241 100.671 116.668C95.6751 110.213 84.002 95.2709 77.8784 88.6084C78.6842 88.8589 79.4697 89.1451 80.2151 89.4528C89.0379 93.1025 99.4621 104.295 99.4923 104.324L95.8665 50.2652C94.4867 39.2661 103.652 32.5606 112.727 30.3422C110.742 31.2296 109.212 32.6036 108.033 34.4427C105.858 37.8205 105.012 42.6581 105.545 48.2901V48.3473L110.269 114.764C110.305 115.253 110.199 115.741 109.959 116.199C109.719 116.658 109.349 117.076 108.873 117.429C108.396 117.782 107.823 118.061 107.188 118.25C106.553 118.439 105.871 118.534 105.183 118.529V118.529Z" fill="#D67D00"/>
</svg>
